<?xml version="1.0" standalone="no"?><!DOCTYPE svg PUBLIC "-//W3C//DTD SVG 1.1//EN" "http://www.w3.org/Graphics/SVG/1.1/DTD/svg11.dtd"><svg t="1696750380295" class="icon" viewBox="0 0 1024 1024" version="1.1" xmlns="http://www.w3.org/2000/svg" p-id="1456" xmlns:xlink="http://www.w3.org/1999/xlink"><path d="M351.3 256h448.8c17.7 0 32-14.3 32-32s-14.3-32-32-32H351.3c-17.7 0-32 14.3-32 32 0 17.6 14.4 32 32 32z" p-id="1457"></path><path d="M768.2 224.1v448.8c0 17.7 14.3 32 32 32s32-14.3 32-32V224.1c0-17.7-14.3-32-32-32s-32 14.3-32 32z m160.2 543.6H224c-17.7 0-32 14.3-32 32s14.3 32 32 32h704.3c17.7 0 32-14.3 32-32 0.1-17.7-14.3-32-31.9-32z" p-id="1458"></path><path d="M256 799.6V95.9c0-17.7-14.3-32-32-32s-32 14.3-32 32v703.7c0 17.7 14.3 32 32 32s32-14.3 32-32z" p-id="1459"></path><path d="M96.2 256H224c17.7 0 32-14.3 32-32s-14.3-32-32-32H96.2c-17.7 0-32 14.3-32 32 0 17.6 14.3 32 32 32z m672 543.8v128.4c0 17.7 14.3 32 32 32s32-14.3 32-32V799.8c0-17.7-14.3-32-32-32s-32 14.3-32 32zM659.7 319L320.1 658.6c-12.5 12.5-12.5 32.8 0 45.3s32.8 12.5 45.3 0L705 364.2c12.5-12.5 12.5-32.8 0-45.3-12.5-12.4-32.8-12.4-45.3 0.1z" p-id="1460"></path></svg>
