<?xml version="1.0" standalone="no"?><!DOCTYPE svg PUBLIC "-//W3C//DTD SVG 1.1//EN" "http://www.w3.org/Graphics/SVG/1.1/DTD/svg11.dtd"><svg t="1696751931278" class="icon" viewBox="0 0 1024 1024" version="1.1" xmlns="http://www.w3.org/2000/svg" p-id="5529" xmlns:xlink="http://www.w3.org/1999/xlink"><path d="M512 512m-64 0a64 64 0 1 0 128 0 64 64 0 1 0-128 0Z" p-id="5530"></path><path d="M933.973333 440.32L900.266667 332.8a96.426667 96.426667 0 0 0-122.88-64.426667l-14.506667 4.693334a74.24 74.24 0 0 1-67.84-11.093334l-4.693333-3.413333a75.093333 75.093333 0 0 1-29.44-61.013333v-11.946667a101.12 101.12 0 0 0-29.013334-71.68 96.426667 96.426667 0 0 0-68.266666-28.586667h-108.8a98.986667 98.986667 0 0 0-97.706667 99.413334v10.24a82.773333 82.773333 0 0 1-31.146667 64.426666l-5.546666 4.266667a82.346667 82.346667 0 0 1-75.946667 12.373333 91.306667 91.306667 0 0 0-71.68 5.12 93.013333 93.013333 0 0 0-47.786667 56.746667l-34.986666 110.933333a99.84 99.84 0 0 0 63.146666 125.44h6.826667a78.08 78.08 0 0 1 47.786667 52.053334l2.56 6.826666a87.893333 87.893333 0 0 1-9.813334 79.36 101.12 101.12 0 0 0 20.906667 140.8l88.32 66.986667a96 96 0 0 0 57.6 18.346667A85.333333 85.333333 0 0 0 384 938.666667a96 96 0 0 0 62.72-42.666667l9.813333-14.08a76.8 76.8 0 0 1 61.013334-32.853333 74.666667 74.666667 0 0 1 64 33.28l5.12 7.253333a95.573333 95.573333 0 0 0 137.386666 22.613333L810.666667 847.36a101.546667 101.546667 0 0 0 21.333333-137.813333l-11.093333-16.213334A85.333333 85.333333 0 0 1 810.666667 622.933333a80.64 80.64 0 0 1 51.626666-54.613333l8.533334-2.986667a100.693333 100.693333 0 0 0 63.146666-125.013333zM512 661.333333a149.333333 149.333333 0 1 1 149.333333-149.333333 149.333333 149.333333 0 0 1-149.333333 149.333333z" p-id="5531"></path></svg>
